<?xml version="1.0" encoding="UTF-8" standalone="no"?>
<!DOCTYPE svg PUBLIC "-//W3C//DTD SVG 1.1//EN"
 "http://www.w3.org/Graphics/SVG/1.1/DTD/svg11.dtd">
<!-- Generated by graphviz version 2.43.0 (0)
 -->
<!-- Title: %3 Pages: 1 -->
<svg width="3695pt" height="692pt"
 viewBox="0.00 0.00 3695.29 692.00" xmlns="http://www.w3.org/2000/svg" xmlns:xlink="http://www.w3.org/1999/xlink">
<g id="graph0" class="graph" transform="scale(1 1) rotate(0) translate(4 688)">
<title>%3</title>
<polygon fill="white" stroke="transparent" points="-4,4 -4,-688 3691.29,-688 3691.29,4 -4,4"/>
<!-- Api -->
<g id="node1" class="node">
<title>Api</title>
<ellipse fill="none" stroke="black" cx="1713.89" cy="-162" rx="27" ry="18"/>
<text text-anchor="middle" x="1713.89" y="-158.3" font-family="Times,serif" font-size="14.00">Api</text>
</g>
<!-- Api.Endpoint -->
<g id="node2" class="node">
<title>Api.Endpoint</title>
<ellipse fill="none" stroke="black" cx="3116.89" cy="-90" rx="71.49" ry="18"/>
<text text-anchor="middle" x="3116.89" y="-86.3" font-family="Times,serif" font-size="14.00">Api.Endpoint</text>
</g>
<!-- Api&#45;&gt;Api.Endpoint -->
<g id="edge1" class="edge">
<title>Api&#45;&gt;Api.Endpoint</title>
<path fill="none" stroke="black" d="M1740.67,-159.66C1904.12,-151.51 2769.37,-108.34 3037.56,-94.96"/>
<polygon fill="black" stroke="black" points="3037.8,-98.45 3047.61,-94.46 3037.45,-91.46 3037.8,-98.45"/>
</g>
<!-- Avatar -->
<g id="node3" class="node">
<title>Avatar</title>
<ellipse fill="none" stroke="black" cx="685.89" cy="-90" rx="41.69" ry="18"/>
<text text-anchor="middle" x="685.89" y="-86.3" font-family="Times,serif" font-size="14.00">Avatar</text>
</g>
<!-- Api&#45;&gt;Avatar -->
<g id="edge2" class="edge">
<title>Api&#45;&gt;Avatar</title>
<path fill="none" stroke="black" d="M1687.97,-156.66C1663.91,-152.78 1627.08,-147.23 1594.89,-144 1269.52,-111.33 876.46,-96.85 737.55,-92.5"/>
<polygon fill="black" stroke="black" points="737.32,-88.99 727.21,-92.18 737.1,-95.99 737.32,-88.99"/>
</g>
<!-- Username -->
<g id="node4" class="node">
<title>Username</title>
<ellipse fill="none" stroke="black" cx="2072.89" cy="-18" rx="58.49" ry="18"/>
<text text-anchor="middle" x="2072.89" y="-14.3" font-family="Times,serif" font-size="14.00">Username</text>
</g>
<!-- Api&#45;&gt;Username -->
<g id="edge3" class="edge">
<title>Api&#45;&gt;Username</title>
<path fill="none" stroke="black" d="M1735.21,-150.69C1771.46,-133.35 1847.64,-97.71 1913.89,-72 1949.87,-58.04 1991.26,-44.31 2022.78,-34.33"/>
<polygon fill="black" stroke="black" points="2024.16,-37.57 2032.65,-31.23 2022.06,-30.89 2024.16,-37.57"/>
</g>
<!-- Api.Endpoint&#45;&gt;Username -->
<g id="edge4" class="edge">
<title>Api.Endpoint&#45;&gt;Username</title>
<path fill="none" stroke="black" d="M3048.8,-84.43C2859.19,-71.72 2326.83,-36.03 2139.29,-23.45"/>
<polygon fill="black" stroke="black" points="2139.5,-19.96 2129.29,-22.78 2139.04,-26.94 2139.5,-19.96"/>
</g>
<!-- Article.Slug -->
<g id="node5" class="node">
<title>Article.Slug</title>
<ellipse fill="none" stroke="black" cx="3230.89" cy="-18" rx="65.79" ry="18"/>
<text text-anchor="middle" x="3230.89" y="-14.3" font-family="Times,serif" font-size="14.00">Article.Slug</text>
</g>
<!-- Api.Endpoint&#45;&gt;Article.Slug -->
<g id="edge5" class="edge">
<title>Api.Endpoint&#45;&gt;Article.Slug</title>
<path fill="none" stroke="black" d="M3142.76,-73.12C3158.65,-63.36 3179.19,-50.75 3196.45,-40.15"/>
<polygon fill="black" stroke="black" points="3198.44,-43.04 3205.13,-34.82 3194.77,-37.07 3198.44,-43.04"/>
</g>
<!-- CommentId -->
<g id="node6" class="node">
<title>CommentId</title>
<ellipse fill="none" stroke="black" cx="3534.89" cy="-18" rx="64.99" ry="18"/>
<text text-anchor="middle" x="3534.89" y="-14.3" font-family="Times,serif" font-size="14.00">CommentId</text>
</g>
<!-- Api.Endpoint&#45;&gt;CommentId -->
<g id="edge6" class="edge">
<title>Api.Endpoint&#45;&gt;CommentId</title>
<path fill="none" stroke="black" d="M3174.57,-79.34C3252.22,-66.34 3389.91,-43.28 3470.73,-29.74"/>
<polygon fill="black" stroke="black" points="3471.5,-33.17 3480.78,-28.06 3470.34,-26.26 3471.5,-33.17"/>
</g>
<!-- Asset -->
<g id="node20" class="node">
<title>Asset</title>
<ellipse fill="none" stroke="black" cx="191.89" cy="-18" rx="36.29" ry="18"/>
<text text-anchor="middle" x="191.89" y="-14.3" font-family="Times,serif" font-size="14.00">Asset</text>
</g>
<!-- Avatar&#45;&gt;Asset -->
<g id="edge44" class="edge">
<title>Avatar&#45;&gt;Asset</title>
<path fill="none" stroke="black" d="M646.72,-83.45C556,-70.59 331.98,-38.85 236.34,-25.3"/>
<polygon fill="black" stroke="black" points="236.8,-21.83 226.41,-23.89 235.82,-28.76 236.8,-21.83"/>
</g>
<!-- Article -->
<g id="node7" class="node">
<title>Article</title>
<ellipse fill="none" stroke="black" cx="2577.89" cy="-450" rx="41.69" ry="18"/>
<text text-anchor="middle" x="2577.89" y="-446.3" font-family="Times,serif" font-size="14.00">Article</text>
</g>
<!-- Article&#45;&gt;Api -->
<g id="edge7" class="edge">
<title>Article&#45;&gt;Api</title>
<path fill="none" stroke="black" d="M2572.96,-432.11C2562.4,-399.02 2534.35,-325.64 2483.89,-288 2365.26,-199.52 1887.96,-171.01 1750.88,-164.56"/>
<polygon fill="black" stroke="black" points="1751.02,-161.06 1740.87,-164.1 1750.7,-168.06 1751.02,-161.06"/>
</g>
<!-- Article&#45;&gt;Api.Endpoint -->
<g id="edge8" class="edge">
<title>Article&#45;&gt;Api.Endpoint</title>
<path fill="none" stroke="black" d="M2601.86,-435.03C2640.44,-412.41 2718.49,-366.04 2782.89,-324 2896.64,-249.74 3027.79,-155.7 3086.14,-113.4"/>
<polygon fill="black" stroke="black" points="3088.5,-116.01 3094.54,-107.31 3084.39,-110.35 3088.5,-116.01"/>
</g>
<!-- Article&#45;&gt;Username -->
<g id="edge9" class="edge">
<title>Article&#45;&gt;Username</title>
<path fill="none" stroke="black" d="M2584.03,-432.02C2597.34,-392.3 2625.17,-291.03 2592.89,-216 2554.83,-127.51 2518.77,-111.46 2430.89,-72 2380.03,-49.16 2227.63,-32.52 2138.93,-24.46"/>
<polygon fill="black" stroke="black" points="2138.97,-20.95 2128.7,-23.54 2138.35,-27.92 2138.97,-20.95"/>
</g>
<!-- Article&#45;&gt;Article.Slug -->
<g id="edge10" class="edge">
<title>Article&#45;&gt;Article.Slug</title>
<path fill="none" stroke="black" d="M2592.4,-432.97C2645.64,-375.11 2837.66,-175.01 3036.89,-72 3077.18,-51.17 3126.53,-37.84 3165.37,-29.75"/>
<polygon fill="black" stroke="black" points="3166.41,-33.11 3175.52,-27.71 3165.03,-26.25 3166.41,-33.11"/>
</g>
<!-- Article.Body -->
<g id="node8" class="node">
<title>Article.Body</title>
<ellipse fill="none" stroke="black" cx="2868.89" cy="-378" rx="67.69" ry="18"/>
<text text-anchor="middle" x="2868.89" y="-374.3" font-family="Times,serif" font-size="14.00">Article.Body</text>
</g>
<!-- Article&#45;&gt;Article.Body -->
<g id="edge11" class="edge">
<title>Article&#45;&gt;Article.Body</title>
<path fill="none" stroke="black" d="M2613.28,-440.49C2662.33,-428.69 2751.56,-407.23 2810.54,-393.04"/>
<polygon fill="black" stroke="black" points="2811.55,-396.39 2820.46,-390.65 2809.91,-389.59 2811.55,-396.39"/>
</g>
<!-- Article.Tag -->
<g id="node9" class="node">
<title>Article.Tag</title>
<ellipse fill="none" stroke="black" cx="2201.89" cy="-378" rx="61.19" ry="18"/>
<text text-anchor="middle" x="2201.89" y="-374.3" font-family="Times,serif" font-size="14.00">Article.Tag</text>
</g>
<!-- Article&#45;&gt;Article.Tag -->
<g id="edge12" class="edge">
<title>Article&#45;&gt;Article.Tag</title>
<path fill="none" stroke="black" d="M2545.83,-438.37C2538.06,-436.04 2529.73,-433.75 2521.89,-432 2414.49,-407.95 2385.09,-416.18 2276.89,-396 2270.69,-394.84 2264.22,-393.53 2257.8,-392.17"/>
<polygon fill="black" stroke="black" points="2258.3,-388.7 2247.79,-389.99 2256.81,-395.54 2258.3,-388.7"/>
</g>
<!-- Author -->
<g id="node10" class="node">
<title>Author</title>
<ellipse fill="none" stroke="black" cx="2436.89" cy="-378" rx="42.49" ry="18"/>
<text text-anchor="middle" x="2436.89" y="-374.3" font-family="Times,serif" font-size="14.00">Author</text>
</g>
<!-- Article&#45;&gt;Author -->
<g id="edge13" class="edge">
<title>Article&#45;&gt;Author</title>
<path fill="none" stroke="black" d="M2551.7,-436C2529.39,-424.92 2497.11,-408.9 2472.46,-396.66"/>
<polygon fill="black" stroke="black" points="2473.93,-393.48 2463.42,-392.17 2470.82,-399.75 2473.93,-393.48"/>
</g>
<!-- Profile -->
<g id="node11" class="node">
<title>Profile</title>
<ellipse fill="none" stroke="black" cx="1884.89" cy="-234" rx="40.89" ry="18"/>
<text text-anchor="middle" x="1884.89" y="-230.3" font-family="Times,serif" font-size="14.00">Profile</text>
</g>
<!-- Article&#45;&gt;Profile -->
<g id="edge14" class="edge">
<title>Article&#45;&gt;Profile</title>
<path fill="none" stroke="black" d="M2545.8,-438.52C2538.02,-436.19 2529.7,-433.86 2521.89,-432 2431.05,-410.4 2399.59,-435.32 2314.89,-396 2292.29,-385.51 2293.69,-372.08 2271.89,-360 2181.53,-309.93 2149.21,-319.71 2050.89,-288 2008.75,-274.41 1960.54,-259.03 1926.97,-248.36"/>
<polygon fill="black" stroke="black" points="1927.63,-244.9 1917.04,-245.2 1925.51,-251.57 1927.63,-244.9"/>
</g>
<!-- Viewer -->
<g id="node12" class="node">
<title>Viewer</title>
<ellipse fill="none" stroke="black" cx="1276.89" cy="-306" rx="42.79" ry="18"/>
<text text-anchor="middle" x="1276.89" y="-302.3" font-family="Times,serif" font-size="14.00">Viewer</text>
</g>
<!-- Article&#45;&gt;Viewer -->
<g id="edge15" class="edge">
<title>Article&#45;&gt;Viewer</title>
<path fill="none" stroke="black" d="M2537.89,-444.63C2348.24,-423.93 1540.08,-335.73 1328.02,-312.58"/>
<polygon fill="black" stroke="black" points="1328.11,-309.07 1317.79,-311.46 1327.35,-316.03 1328.11,-309.07"/>
</g>
<!-- Article.Tag&#45;&gt;Api -->
<g id="edge36" class="edge">
<title>Article.Tag&#45;&gt;Api</title>
<path fill="none" stroke="black" d="M2180.61,-361C2136.89,-328.86 2032.81,-256.13 1934.89,-216 1872.53,-190.44 1795.01,-175.39 1750.31,-168.21"/>
<polygon fill="black" stroke="black" points="1750.64,-164.72 1740.22,-166.63 1749.56,-171.64 1750.64,-164.72"/>
</g>
<!-- Article.Tag&#45;&gt;Api.Endpoint -->
<g id="edge37" class="edge">
<title>Article.Tag&#45;&gt;Api.Endpoint</title>
<path fill="none" stroke="black" d="M2261.62,-374.07C2320.48,-369.31 2411.8,-356.81 2483.89,-324 2601.41,-270.53 2592.94,-194.18 2711.89,-144 2769.14,-119.85 2937.77,-103.93 3038.48,-96.29"/>
<polygon fill="black" stroke="black" points="3038.9,-99.77 3048.61,-95.53 3038.38,-92.78 3038.9,-99.77"/>
</g>
<!-- Author&#45;&gt;Api -->
<g id="edge38" class="edge">
<title>Author&#45;&gt;Api</title>
<path fill="none" stroke="black" d="M2421.65,-361.13C2401.31,-340.92 2363.24,-306.43 2323.89,-288 2121.75,-193.35 1848.86,-170.06 1750.85,-164.6"/>
<polygon fill="black" stroke="black" points="1751.02,-161.1 1740.84,-164.07 1750.65,-168.09 1751.02,-161.1"/>
</g>
<!-- Author&#45;&gt;Api.Endpoint -->
<g id="edge39" class="edge">
<title>Author&#45;&gt;Api.Endpoint</title>
<path fill="none" stroke="black" d="M2469.99,-366.71C2477.51,-364.45 2485.46,-362.1 2492.89,-360 2553.9,-342.79 2578.99,-360.38 2630.89,-324 2710.44,-268.24 2672.4,-195.31 2754.89,-144 2800.77,-115.46 2945.54,-101.45 3037.5,-95.26"/>
<polygon fill="black" stroke="black" points="3037.86,-98.74 3047.61,-94.59 3037.41,-91.76 3037.86,-98.74"/>
</g>
<!-- Author&#45;&gt;Username -->
<g id="edge40" class="edge">
<title>Author&#45;&gt;Username</title>
<path fill="none" stroke="black" d="M2454.6,-361.49C2464.67,-351.71 2476.68,-338.27 2483.89,-324 2502.13,-287.9 2502.89,-275.45 2502.89,-235 2502.89,-235 2502.89,-235 2502.89,-161 2502.89,-84.8 2256.33,-42.58 2136.62,-26.57"/>
<polygon fill="black" stroke="black" points="2136.85,-23.07 2126.48,-25.24 2135.94,-30.01 2136.85,-23.07"/>
</g>
<!-- Author&#45;&gt;Profile -->
<g id="edge41" class="edge">
<title>Author&#45;&gt;Profile</title>
<path fill="none" stroke="black" d="M2415.47,-362.26C2384.88,-341.99 2326.25,-305.99 2270.89,-288 2154.93,-250.3 2010.88,-239.42 1935.8,-236.27"/>
<polygon fill="black" stroke="black" points="1935.8,-232.77 1925.67,-235.88 1935.53,-239.77 1935.8,-232.77"/>
</g>
<!-- Author&#45;&gt;Viewer -->
<g id="edge42" class="edge">
<title>Author&#45;&gt;Viewer</title>
<path fill="none" stroke="black" d="M2396.6,-372.29C2363.22,-368.52 2314.53,-363.33 2271.89,-360 1912.31,-331.92 1478.45,-314.42 1329.82,-308.9"/>
<polygon fill="black" stroke="black" points="1329.74,-305.39 1319.61,-308.52 1329.48,-312.39 1329.74,-305.39"/>
</g>
<!-- Route -->
<g id="node17" class="node">
<title>Route</title>
<ellipse fill="none" stroke="black" cx="2436.89" cy="-306" rx="38.19" ry="18"/>
<text text-anchor="middle" x="2436.89" y="-302.3" font-family="Times,serif" font-size="14.00">Route</text>
</g>
<!-- Author&#45;&gt;Route -->
<g id="edge43" class="edge">
<title>Author&#45;&gt;Route</title>
<path fill="none" stroke="black" d="M2436.89,-359.7C2436.89,-351.98 2436.89,-342.71 2436.89,-334.11"/>
<polygon fill="black" stroke="black" points="2440.39,-334.1 2436.89,-324.1 2433.39,-334.1 2440.39,-334.1"/>
</g>
<!-- Profile&#45;&gt;Api -->
<g id="edge144" class="edge">
<title>Profile&#45;&gt;Api</title>
<path fill="none" stroke="black" d="M1855.88,-221.13C1825.36,-208.63 1777.45,-189.02 1745.86,-176.09"/>
<polygon fill="black" stroke="black" points="1746.8,-172.69 1736.22,-172.14 1744.15,-179.17 1746.8,-172.69"/>
</g>
<!-- Profile&#45;&gt;Avatar -->
<g id="edge145" class="edge">
<title>Profile&#45;&gt;Avatar</title>
<path fill="none" stroke="black" d="M1867.75,-217.22C1843.57,-196.09 1797.12,-159.46 1749.89,-144 1653.24,-112.37 937.3,-95.97 737.53,-91.98"/>
<polygon fill="black" stroke="black" points="737.37,-88.47 727.31,-91.77 737.23,-95.47 737.37,-88.47"/>
</g>
<!-- Profile&#45;&gt;Username -->
<g id="edge146" class="edge">
<title>Profile&#45;&gt;Username</title>
<path fill="none" stroke="black" d="M1899.02,-216.92C1931.74,-179.67 2012.86,-87.33 2051.62,-43.22"/>
<polygon fill="black" stroke="black" points="2054.37,-45.39 2058.34,-35.57 2049.11,-40.77 2054.37,-45.39"/>
</g>
<!-- Viewer&#45;&gt;Api -->
<g id="edge154" class="edge">
<title>Viewer&#45;&gt;Api</title>
<path fill="none" stroke="black" d="M1283.63,-288.02C1292.8,-267.31 1311.3,-232.97 1338.89,-216 1395.09,-181.44 1593.6,-168.5 1676.78,-164.51"/>
<polygon fill="black" stroke="black" points="1676.98,-168.01 1686.81,-164.05 1676.65,-161.02 1676.98,-168.01"/>
</g>
<!-- Viewer&#45;&gt;Avatar -->
<g id="edge155" class="edge">
<title>Viewer&#45;&gt;Avatar</title>
<path fill="none" stroke="black" d="M1245.54,-293.65C1146.04,-257.62 837.5,-145.9 726.33,-105.64"/>
<polygon fill="black" stroke="black" points="727.41,-102.31 716.82,-102.2 725.03,-108.89 727.41,-102.31"/>
</g>
<!-- Viewer&#45;&gt;Username -->
<g id="edge156" class="edge">
<title>Viewer&#45;&gt;Username</title>
<path fill="none" stroke="black" d="M1276.5,-287.8C1277,-267.84 1280.96,-235.21 1299.89,-216 1470.05,-43.39 1590.42,-129.45 1825.89,-72 1890.27,-56.29 1964.7,-40.67 2014.88,-30.49"/>
<polygon fill="black" stroke="black" points="2015.79,-33.88 2024.9,-28.47 2014.4,-27.02 2015.79,-33.88"/>
</g>
<!-- Viewer&#45;&gt;Profile -->
<g id="edge157" class="edge">
<title>Viewer&#45;&gt;Profile</title>
<path fill="none" stroke="black" d="M1317.73,-300.3C1425.76,-287.86 1718.77,-254.13 1835.72,-240.66"/>
<polygon fill="black" stroke="black" points="1836.28,-244.12 1845.81,-239.5 1835.48,-237.17 1836.28,-244.12"/>
</g>
<!-- Email -->
<g id="node33" class="node">
<title>Email</title>
<ellipse fill="none" stroke="black" cx="903.89" cy="-234" rx="37.89" ry="18"/>
<text text-anchor="middle" x="903.89" y="-230.3" font-family="Times,serif" font-size="14.00">Email</text>
</g>
<!-- Viewer&#45;&gt;Email -->
<g id="edge158" class="edge">
<title>Viewer&#45;&gt;Email</title>
<path fill="none" stroke="black" d="M1235.95,-300.27C1174.55,-292.72 1055.2,-276.28 955.89,-252 951.57,-250.94 947.09,-249.7 942.66,-248.39"/>
<polygon fill="black" stroke="black" points="943.68,-245.04 933.09,-245.41 941.6,-251.72 943.68,-245.04"/>
</g>
<!-- Article.Comment -->
<g id="node13" class="node">
<title>Article.Comment</title>
<ellipse fill="none" stroke="black" cx="2999.89" cy="-522" rx="89.08" ry="18"/>
<text text-anchor="middle" x="2999.89" y="-518.3" font-family="Times,serif" font-size="14.00">Article.Comment</text>
</g>
<!-- Article.Comment&#45;&gt;Api -->
<g id="edge16" class="edge">
<title>Article.Comment&#45;&gt;Api</title>
<path fill="none" stroke="black" d="M3001.28,-503.76C3002.91,-471.05 3001.46,-399.7 2962.89,-360 2789.11,-181.13 1939.91,-164.59 1751.13,-163.13"/>
<polygon fill="black" stroke="black" points="1750.91,-159.63 1740.89,-163.06 1750.86,-166.63 1750.91,-159.63"/>
</g>
<!-- Article.Comment&#45;&gt;Api.Endpoint -->
<g id="edge17" class="edge">
<title>Article.Comment&#45;&gt;Api.Endpoint</title>
<path fill="none" stroke="black" d="M3038.61,-505.63C3084.52,-484.54 3154.89,-441.95 3154.89,-379 3154.89,-379 3154.89,-379 3154.89,-233 3154.89,-191.63 3139.66,-145.72 3128.48,-117.61"/>
<polygon fill="black" stroke="black" points="3131.61,-116.02 3124.58,-108.09 3125.14,-118.67 3131.61,-116.02"/>
</g>
<!-- Article.Comment&#45;&gt;Article.Slug -->
<g id="edge18" class="edge">
<title>Article.Comment&#45;&gt;Article.Slug</title>
<path fill="none" stroke="black" d="M3075.28,-512.36C3116.41,-505.11 3166.94,-491.91 3206.89,-468 3327.54,-395.8 3420.89,-375.61 3420.89,-235 3420.89,-235 3420.89,-235 3420.89,-161 3420.89,-93.07 3342,-53.72 3285.89,-34.33"/>
<polygon fill="black" stroke="black" points="3287,-31.01 3276.4,-31.16 3284.78,-37.65 3287,-31.01"/>
</g>
<!-- Article.Comment&#45;&gt;CommentId -->
<g id="edge19" class="edge">
<title>Article.Comment&#45;&gt;CommentId</title>
<path fill="none" stroke="black" d="M3074.31,-512.06C3125.29,-504.31 3193.77,-490.68 3250.89,-468 3307.99,-445.33 3323.42,-437.32 3368.89,-396 3477.41,-297.39 3518.58,-114.91 3530.68,-46.16"/>
<polygon fill="black" stroke="black" points="3534.16,-46.57 3532.37,-36.13 3527.25,-45.4 3534.16,-46.57"/>
</g>
<!-- Article.Comment&#45;&gt;Article -->
<g id="edge20" class="edge">
<title>Article.Comment&#45;&gt;Article</title>
<path fill="none" stroke="black" d="M2922.16,-513.19C2847.65,-504.89 2732.28,-489.93 2633.89,-468 2629.24,-466.96 2624.41,-465.74 2619.63,-464.42"/>
<polygon fill="black" stroke="black" points="2620.53,-461.04 2609.95,-461.64 2618.59,-467.77 2620.53,-461.04"/>
</g>
<!-- Article.Comment&#45;&gt;Author -->
<g id="edge21" class="edge">
<title>Article.Comment&#45;&gt;Author</title>
<path fill="none" stroke="black" d="M2949.04,-507.17C2882.98,-489.3 2764.05,-457.48 2661.89,-432 2600.17,-416.61 2528.62,-399.96 2483.08,-389.51"/>
<polygon fill="black" stroke="black" points="2483.73,-386.07 2473.2,-387.25 2482.17,-392.89 2483.73,-386.07"/>
</g>
<!-- Article.Comment&#45;&gt;Profile -->
<g id="edge22" class="edge">
<title>Article.Comment&#45;&gt;Profile</title>
<path fill="none" stroke="black" d="M2918.89,-514.48C2833.4,-506.53 2705.14,-491.19 2661.89,-468 2642.76,-457.74 2648.06,-442.18 2628.89,-432 2532.46,-380.81 2490.6,-426.94 2385.89,-396 2348.89,-385.07 2342.28,-375.38 2306.89,-360 2230.14,-326.64 2212.81,-312.85 2132.89,-288 2064.65,-266.78 1983.24,-251.16 1932.8,-242.57"/>
<polygon fill="black" stroke="black" points="1933.28,-239.1 1922.83,-240.9 1932.12,-246.01 1933.28,-239.1"/>
</g>
<!-- Article.Feed -->
<g id="node14" class="node">
<title>Article.Feed</title>
<ellipse fill="none" stroke="black" cx="1852.89" cy="-522" rx="66.89" ry="18"/>
<text text-anchor="middle" x="1852.89" y="-518.3" font-family="Times,serif" font-size="14.00">Article.Feed</text>
</g>
<!-- Article.Feed&#45;&gt;Api -->
<g id="edge23" class="edge">
<title>Article.Feed&#45;&gt;Api</title>
<path fill="none" stroke="black" d="M1846.19,-504.07C1838.92,-486.01 1826.76,-456.68 1814.89,-432 1791.28,-382.9 1776.95,-374.66 1756.89,-324 1738.91,-278.56 1725.94,-223 1719.19,-190.45"/>
<polygon fill="black" stroke="black" points="1722.56,-189.45 1717.15,-180.34 1715.7,-190.84 1722.56,-189.45"/>
</g>
<!-- Article.Feed&#45;&gt;Avatar -->
<g id="edge24" class="edge">
<title>Article.Feed&#45;&gt;Avatar</title>
<path fill="none" stroke="black" d="M1786.53,-519.27C1539.5,-512.65 686.38,-488.38 666.89,-468 619.31,-418.24 662.64,-196.19 679.69,-118.2"/>
<polygon fill="black" stroke="black" points="683.17,-118.7 681.92,-108.18 676.33,-117.18 683.17,-118.7"/>
</g>
<!-- Article.Feed&#45;&gt;Username -->
<g id="edge25" class="edge">
<title>Article.Feed&#45;&gt;Username</title>
<path fill="none" stroke="black" d="M1786.31,-519.26C1536.4,-512.6 667.44,-488.04 646.89,-468 520.81,-345.08 512.7,-198.78 634.89,-72 682.9,-22.19 1724.48,-18.9 2004.25,-18.91"/>
<polygon fill="black" stroke="black" points="2004.26,-22.41 2014.26,-18.92 2004.27,-15.41 2004.26,-22.41"/>
</g>
<!-- Article.Feed&#45;&gt;Article.Slug -->
<g id="edge26" class="edge">
<title>Article.Feed&#45;&gt;Article.Slug</title>
<path fill="none" stroke="black" d="M1907.79,-511.55C1945.86,-503.53 1996.87,-489.77 2037.89,-468 2059.91,-456.31 2057.86,-441.54 2080.89,-432 2164.78,-397.26 2411.23,-444.65 2487.89,-396 2566.09,-346.37 2522.2,-275.84 2592.89,-216 2730.74,-99.31 2799.44,-122.33 2972.89,-72 3037.46,-53.26 3112.96,-38.57 3165.54,-29.45"/>
<polygon fill="black" stroke="black" points="3166.15,-32.9 3175.41,-27.76 3164.96,-26 3166.15,-32.9"/>
</g>
<!-- Article.Feed&#45;&gt;Article -->
<g id="edge27" class="edge">
<title>Article.Feed&#45;&gt;Article</title>
<path fill="none" stroke="black" d="M1914.71,-515.03C2055.57,-501.43 2398.18,-468.35 2527.42,-455.87"/>
<polygon fill="black" stroke="black" points="2527.83,-459.35 2537.45,-454.91 2527.16,-452.38 2527.83,-459.35"/>
</g>
<!-- Article.Feed&#45;&gt;Article.Tag -->
<g id="edge28" class="edge">
<title>Article.Feed&#45;&gt;Article.Tag</title>
<path fill="none" stroke="black" d="M1876.69,-505.03C1906.66,-485.51 1960.25,-452.55 2009.89,-432 2053.15,-414.09 2104.36,-400.3 2143.01,-391.28"/>
<polygon fill="black" stroke="black" points="2144.09,-394.62 2153.06,-388.98 2142.53,-387.8 2144.09,-394.62"/>
</g>
<!-- Article.Feed&#45;&gt;Author -->
<g id="edge29" class="edge">
<title>Article.Feed&#45;&gt;Author</title>
<path fill="none" stroke="black" d="M1897.78,-508.63C1927.67,-499.48 1967.3,-485.58 1999.89,-468 2023.36,-455.34 2023.22,-442.12 2047.89,-432 2078.65,-419.38 2288.45,-395.21 2386.54,-384.43"/>
<polygon fill="black" stroke="black" points="2386.96,-387.9 2396.52,-383.34 2386.2,-380.95 2386.96,-387.9"/>
</g>
<!-- Article.Feed&#45;&gt;Profile -->
<g id="edge30" class="edge">
<title>Article.Feed&#45;&gt;Profile</title>
<path fill="none" stroke="black" d="M1853.16,-503.91C1853.98,-465.21 1857.35,-368.01 1870.89,-288 1872.36,-279.33 1874.59,-270.01 1876.85,-261.64"/>
<polygon fill="black" stroke="black" points="1880.22,-262.59 1879.56,-252.01 1873.48,-260.69 1880.22,-262.59"/>
</g>
<!-- Page -->
<g id="node15" class="node">
<title>Page</title>
<ellipse fill="none" stroke="black" cx="1772.89" cy="-450" rx="33.29" ry="18"/>
<text text-anchor="middle" x="1772.89" y="-446.3" font-family="Times,serif" font-size="14.00">Page</text>
</g>
<!-- Article.Feed&#45;&gt;Page -->
<g id="edge31" class="edge">
<title>Article.Feed&#45;&gt;Page</title>
<path fill="none" stroke="black" d="M1833.93,-504.41C1822.97,-494.82 1809.06,-482.65 1797.29,-472.35"/>
<polygon fill="black" stroke="black" points="1799.38,-469.52 1789.54,-465.57 1794.77,-474.79 1799.38,-469.52"/>
</g>
<!-- PaginatedList -->
<g id="node16" class="node">
<title>PaginatedList</title>
<ellipse fill="none" stroke="black" cx="1108.89" cy="-450" rx="74.99" ry="18"/>
<text text-anchor="middle" x="1108.89" y="-446.3" font-family="Times,serif" font-size="14.00">PaginatedList</text>
</g>
<!-- Article.Feed&#45;&gt;PaginatedList -->
<g id="edge32" class="edge">
<title>Article.Feed&#45;&gt;PaginatedList</title>
<path fill="none" stroke="black" d="M1790.74,-515.15C1655.72,-502.45 1335.82,-472.35 1187.25,-458.37"/>
<polygon fill="black" stroke="black" points="1187.56,-454.89 1177.28,-457.43 1186.91,-461.86 1187.56,-454.89"/>
</g>
<!-- Article.Feed&#45;&gt;Route -->
<g id="edge33" class="edge">
<title>Article.Feed&#45;&gt;Route</title>
<path fill="none" stroke="black" d="M1878.18,-505.21C1907.31,-487.14 1956.7,-456.84 1999.89,-432 2057.82,-398.69 2068.8,-382.01 2131.89,-360 2219.68,-329.37 2328.1,-315.94 2389.18,-310.44"/>
<polygon fill="black" stroke="black" points="2389.63,-313.92 2399.29,-309.57 2389.02,-306.94 2389.63,-313.92"/>
</g>
<!-- Session -->
<g id="node18" class="node">
<title>Session</title>
<ellipse fill="none" stroke="black" cx="1240.89" cy="-378" rx="46.29" ry="18"/>
<text text-anchor="middle" x="1240.89" y="-374.3" font-family="Times,serif" font-size="14.00">Session</text>
</g>
<!-- Article.Feed&#45;&gt;Session -->
<g id="edge34" class="edge">
<title>Article.Feed&#45;&gt;Session</title>
<path fill="none" stroke="black" d="M1796.06,-512.41C1776.39,-509.56 1754.19,-506.49 1733.89,-504 1578.24,-484.91 1527.36,-529.01 1382.89,-468 1359.93,-458.3 1360.54,-445.96 1339.89,-432 1320.55,-418.93 1297.63,-406.49 1278.73,-396.95"/>
<polygon fill="black" stroke="black" points="1280.04,-393.69 1269.52,-392.37 1276.92,-399.96 1280.04,-393.69"/>
</g>
<!-- Timestamp -->
<g id="node19" class="node">
<title>Timestamp</title>
<ellipse fill="none" stroke="black" cx="2151.89" cy="-450" rx="62.29" ry="18"/>
<text text-anchor="middle" x="2151.89" y="-446.3" font-family="Times,serif" font-size="14.00">Timestamp</text>
</g>
<!-- Article.Feed&#45;&gt;Timestamp -->
<g id="edge35" class="edge">
<title>Article.Feed&#45;&gt;Timestamp</title>
<path fill="none" stroke="black" d="M1901.6,-509.6C1954.67,-497.17 2039.48,-477.32 2095.43,-464.22"/>
<polygon fill="black" stroke="black" points="2096.24,-467.62 2105.18,-461.94 2094.64,-460.81 2096.24,-467.62"/>
</g>
<!-- Page&#45;&gt;Api -->
<g id="edge63" class="edge">
<title>Page&#45;&gt;Api</title>
<path fill="none" stroke="black" d="M1752.82,-435.58C1740.56,-426.13 1725.93,-412.28 1718.89,-396 1688.94,-326.72 1699.98,-234.69 1708.18,-189.85"/>
<polygon fill="black" stroke="black" points="1711.62,-190.49 1710.08,-180.01 1704.75,-189.17 1711.62,-190.49"/>
</g>
<!-- Page&#45;&gt;Avatar -->
<g id="edge64" class="edge">
<title>Page&#45;&gt;Avatar</title>
<path fill="none" stroke="black" d="M1746.67,-438.91C1703.05,-422.19 1612.77,-387.8 1535.89,-360 1254.37,-258.2 1185.29,-227.8 897.89,-144 841.25,-127.48 775.18,-111.47 732.05,-101.45"/>
<polygon fill="black" stroke="black" points="732.66,-98 722.13,-99.16 731.09,-104.82 732.66,-98"/>
</g>
<!-- Page&#45;&gt;Username -->
<g id="edge65" class="edge">
<title>Page&#45;&gt;Username</title>
<path fill="none" stroke="black" d="M1787.1,-433.24C1816.26,-400.57 1884.4,-322.59 1934.89,-252 1978.66,-190.81 1985.96,-172.97 2023.89,-108 2036.12,-87.05 2049.35,-62.92 2058.98,-45.08"/>
<polygon fill="black" stroke="black" points="2062.28,-46.34 2063.93,-35.87 2056.11,-43.02 2062.28,-46.34"/>
</g>
<!-- Page&#45;&gt;Profile -->
<g id="edge66" class="edge">
<title>Page&#45;&gt;Profile</title>
<path fill="none" stroke="black" d="M1775.84,-431.9C1779.26,-413.7 1785.66,-384.24 1794.89,-360 1807.77,-326.19 1811.55,-317.22 1832.89,-288 1840.73,-277.26 1850.69,-266.58 1859.8,-257.64"/>
<polygon fill="black" stroke="black" points="1862.37,-260.03 1867.17,-250.59 1857.53,-254.97 1862.37,-260.03"/>
</g>
<!-- Page&#45;&gt;Viewer -->
<g id="edge67" class="edge">
<title>Page&#45;&gt;Viewer</title>
<path fill="none" stroke="black" d="M1744.26,-440.76C1689.59,-425.03 1566.52,-389.64 1462.89,-360 1414.44,-346.14 1358.87,-330.32 1321.18,-319.59"/>
<polygon fill="black" stroke="black" points="1322.1,-316.22 1311.52,-316.85 1320.18,-322.95 1322.1,-316.22"/>
</g>
<!-- Page&#45;&gt;Route -->
<g id="edge68" class="edge">
<title>Page&#45;&gt;Route</title>
<path fill="none" stroke="black" d="M1800.98,-440.2C1857.1,-422.86 1987.31,-383.9 2098.89,-360 2201.99,-337.92 2324.62,-320.98 2390.12,-312.66"/>
<polygon fill="black" stroke="black" points="2390.65,-316.13 2400.14,-311.4 2389.78,-309.18 2390.65,-316.13"/>
</g>
<!-- Page&#45;&gt;Session -->
<g id="edge69" class="edge">
<title>Page&#45;&gt;Session</title>
<path fill="none" stroke="black" d="M1743.01,-441.96C1728.02,-438.61 1709.57,-434.74 1692.89,-432 1550.32,-408.54 1380.79,-391.55 1295.57,-383.76"/>
<polygon fill="black" stroke="black" points="1295.63,-380.25 1285.35,-382.83 1295,-387.22 1295.63,-380.25"/>
</g>
<!-- Route&#45;&gt;Username -->
<g id="edge147" class="edge">
<title>Route&#45;&gt;Username</title>
<path fill="none" stroke="black" d="M2432.77,-288.03C2421.28,-244.63 2384.7,-129 2308.89,-72 2260.69,-35.76 2192.3,-23.5 2141.55,-19.72"/>
<polygon fill="black" stroke="black" points="2141.53,-16.21 2131.32,-19.06 2141.07,-23.2 2141.53,-16.21"/>
</g>
<!-- Route&#45;&gt;Article.Slug -->
<g id="edge148" class="edge">
<title>Route&#45;&gt;Article.Slug</title>
<path fill="none" stroke="black" d="M2440.42,-288.04C2450.66,-243.62 2484.86,-123.75 2564.89,-72 2613.55,-40.54 2992,-25.9 3155.77,-20.99"/>
<polygon fill="black" stroke="black" points="3155.88,-24.49 3165.77,-20.7 3155.67,-17.49 3155.88,-24.49"/>
</g>
<!-- Route&#45;&gt;Profile -->
<g id="edge149" class="edge">
<title>Route&#45;&gt;Profile</title>
<path fill="none" stroke="black" d="M2402.38,-297.87C2385.67,-294.58 2365.29,-290.79 2346.89,-288 2197.47,-265.35 2019.55,-247.48 1934.7,-239.52"/>
<polygon fill="black" stroke="black" points="1934.85,-236.02 1924.57,-238.57 1934.2,-242.99 1934.85,-236.02"/>
</g>
<!-- Session&#45;&gt;Api -->
<g id="edge150" class="edge">
<title>Session&#45;&gt;Api</title>
<path fill="none" stroke="black" d="M1271.44,-364.36C1290.05,-355.39 1313.19,-341.78 1328.89,-324 1363.67,-284.63 1335.21,-247.97 1376.89,-216 1423.35,-180.37 1599.04,-168.16 1676.65,-164.45"/>
<polygon fill="black" stroke="black" points="1677.1,-167.93 1686.93,-163.98 1676.78,-160.94 1677.1,-167.93"/>
</g>
<!-- Session&#45;&gt;Avatar -->
<g id="edge151" class="edge">
<title>Session&#45;&gt;Avatar</title>
<path fill="none" stroke="black" d="M1199.76,-369.79C1126.68,-355.68 971.19,-319.74 856.89,-252 793.57,-214.47 734.52,-149.81 705.21,-114.94"/>
<polygon fill="black" stroke="black" points="707.82,-112.62 698.74,-107.16 702.44,-117.09 707.82,-112.62"/>
</g>
<!-- Session&#45;&gt;Profile -->
<g id="edge152" class="edge">
<title>Session&#45;&gt;Profile</title>
<path fill="none" stroke="black" d="M1280.21,-368.33C1393.12,-343.43 1717.98,-271.8 1838.86,-245.15"/>
<polygon fill="black" stroke="black" points="1839.88,-248.51 1848.9,-242.94 1838.38,-241.67 1839.88,-248.51"/>
</g>
<!-- Session&#45;&gt;Viewer -->
<g id="edge153" class="edge">
<title>Session&#45;&gt;Viewer</title>
<path fill="none" stroke="black" d="M1249.61,-360.05C1253.81,-351.89 1258.94,-341.91 1263.61,-332.82"/>
<polygon fill="black" stroke="black" points="1266.8,-334.28 1268.26,-323.79 1260.57,-331.08 1266.8,-334.28"/>
</g>
<!-- Loading -->
<g id="node21" class="node">
<title>Loading</title>
<ellipse fill="none" stroke="black" cx="457.89" cy="-378" rx="48.19" ry="18"/>
<text text-anchor="middle" x="457.89" y="-374.3" font-family="Times,serif" font-size="14.00">Loading</text>
</g>
<!-- Loading&#45;&gt;Asset -->
<g id="edge45" class="edge">
<title>Loading&#45;&gt;Asset</title>
<path fill="none" stroke="black" d="M445.42,-360.21C402.47,-302.41 260.59,-111.46 210.01,-43.38"/>
<polygon fill="black" stroke="black" points="212.81,-41.28 204.03,-35.34 207.19,-45.45 212.81,-41.28"/>
</g>
<!-- Main -->
<g id="node22" class="node">
<title>Main</title>
<ellipse fill="none" stroke="black" cx="939.89" cy="-666" rx="34.39" ry="18"/>
<text text-anchor="middle" x="939.89" y="-662.3" font-family="Times,serif" font-size="14.00">Main</text>
</g>
<!-- Main&#45;&gt;Api -->
<g id="edge46" class="edge">
<title>Main&#45;&gt;Api</title>
<path fill="none" stroke="black" d="M906.89,-660.54C769.9,-640.7 259.63,-552.74 400.89,-360 507.9,-213.99 604.81,-253.57 781.89,-216 957.23,-178.8 1525.35,-166.32 1676.61,-163.61"/>
<polygon fill="black" stroke="black" points="1676.83,-167.11 1686.77,-163.43 1676.71,-160.11 1676.83,-167.11"/>
</g>
<!-- Main&#45;&gt;Avatar -->
<g id="edge47" class="edge">
<title>Main&#45;&gt;Avatar</title>
<path fill="none" stroke="black" d="M905.16,-665.05C770.65,-664.89 289.2,-660.89 243.89,-612 85.82,-441.43 288.11,-278.39 477.89,-144 524.45,-111.03 589.7,-98.54 634.64,-93.83"/>
<polygon fill="black" stroke="black" points="635.13,-97.3 644.75,-92.86 634.46,-90.33 635.13,-97.3"/>
</g>
<!-- Main&#45;&gt;Username -->
<g id="edge48" class="edge">
<title>Main&#45;&gt;Username</title>
<path fill="none" stroke="black" d="M905.13,-664.59C768.11,-662.71 270.17,-653.06 213.89,-612 116.28,-540.77 180.92,-144.1 277.89,-72 348.32,-19.64 1683.66,-18.39 2004.17,-18.84"/>
<polygon fill="black" stroke="black" points="2004.24,-22.34 2014.25,-18.86 2004.25,-15.34 2004.24,-22.34"/>
</g>
<!-- Main&#45;&gt;Article.Slug -->
<g id="edge49" class="edge">
<title>Main&#45;&gt;Article.Slug</title>
<path fill="none" stroke="black" d="M974.61,-664.99C1282.55,-664.64 3534.89,-657.51 3534.89,-523 3534.89,-523 3534.89,-523 3534.89,-233 3534.89,-146.09 3494.75,-122.33 3423.89,-72 3388.27,-46.69 3341.07,-33.46 3302.26,-26.55"/>
<polygon fill="black" stroke="black" points="3302.51,-23.04 3292.07,-24.84 3301.36,-29.94 3302.51,-23.04"/>
</g>
<!-- Main&#45;&gt;Viewer -->
<g id="edge50" class="edge">
<title>Main&#45;&gt;Viewer</title>
<path fill="none" stroke="black" d="M905.2,-665.01C772,-664.69 298.47,-660.16 253.89,-612 243.02,-600.26 249.18,-591.29 253.89,-576 288.07,-465.02 299.94,-417.38 400.89,-360 472.32,-319.4 1045.3,-309.59 1223.92,-307.51"/>
<polygon fill="black" stroke="black" points="1224.16,-311.01 1234.12,-307.39 1224.08,-304.01 1224.16,-311.01"/>
</g>
<!-- Main&#45;&gt;Page -->
<g id="edge51" class="edge">
<title>Main&#45;&gt;Page</title>
<path fill="none" stroke="black" d="M974.28,-664.22C1109.83,-660.92 1602.76,-646.61 1662.89,-612 1715.46,-581.74 1748.32,-514.98 1763.32,-477.63"/>
<polygon fill="black" stroke="black" points="1766.73,-478.52 1767.07,-467.93 1760.2,-475.99 1766.73,-478.52"/>
</g>
<!-- Main&#45;&gt;Route -->
<g id="edge52" class="edge">
<title>Main&#45;&gt;Route</title>
<path fill="none" stroke="black" d="M974.53,-664.39C1247.28,-659.39 3040.44,-623.42 3114.89,-540 3175.98,-471.56 3095.93,-401.06 3013.89,-360 2921.67,-313.85 2607.08,-307.63 2485.45,-306.98"/>
<polygon fill="black" stroke="black" points="2485.33,-303.48 2475.31,-306.93 2485.3,-310.48 2485.33,-303.48"/>
</g>
<!-- Main&#45;&gt;Session -->
<g id="edge53" class="edge">
<title>Main&#45;&gt;Session</title>
<path fill="none" stroke="black" d="M905.36,-665C866.43,-662.9 804.67,-652.84 774.89,-612 765.47,-599.07 768.87,-590.82 774.89,-576 808.47,-493.29 835.73,-473.24 914.89,-432 961.07,-407.94 1105.77,-391.35 1185.99,-383.73"/>
<polygon fill="black" stroke="black" points="1186.76,-387.18 1196.39,-382.76 1186.11,-380.21 1186.76,-387.18"/>
</g>
<!-- Page.Article -->
<g id="node23" class="node">
<title>Page.Article</title>
<ellipse fill="none" stroke="black" cx="2341.89" cy="-594" rx="66.89" ry="18"/>
<text text-anchor="middle" x="2341.89" y="-590.3" font-family="Times,serif" font-size="14.00">Page.Article</text>
</g>
<!-- Main&#45;&gt;Page.Article -->
<g id="edge54" class="edge">
<title>Main&#45;&gt;Page.Article</title>
<path fill="none" stroke="black" d="M974.2,-663.29C1155.91,-654.21 2007.4,-611.7 2266.74,-598.75"/>
<polygon fill="black" stroke="black" points="2267,-602.24 2276.81,-598.25 2266.65,-595.25 2267,-602.24"/>
</g>
<!-- Page.Article.Editor -->
<g id="node24" class="node">
<title>Page.Article.Editor</title>
<ellipse fill="none" stroke="black" cx="2634.89" cy="-522" rx="98.58" ry="18"/>
<text text-anchor="middle" x="2634.89" y="-518.3" font-family="Times,serif" font-size="14.00">Page.Article.Editor</text>
</g>
<!-- Main&#45;&gt;Page.Article.Editor -->
<g id="edge55" class="edge">
<title>Main&#45;&gt;Page.Article.Editor</title>
<path fill="none" stroke="black" d="M974.26,-664.49C1182.63,-661.32 2272.71,-643.33 2417.89,-612 2483.02,-597.95 2553.54,-565.5 2595.96,-543.91"/>
<polygon fill="black" stroke="black" points="2597.8,-546.9 2605.09,-539.21 2594.59,-540.68 2597.8,-546.9"/>
</g>
<!-- Page.Blank -->
<g id="node25" class="node">
<title>Page.Blank</title>
<ellipse fill="none" stroke="black" cx="3624.89" cy="-594" rx="62.29" ry="18"/>
<text text-anchor="middle" x="3624.89" y="-590.3" font-family="Times,serif" font-size="14.00">Page.Blank</text>
</g>
<!-- Main&#45;&gt;Page.Blank -->
<g id="edge56" class="edge">
<title>Main&#45;&gt;Page.Blank</title>
<path fill="none" stroke="black" d="M974.61,-664.71C1264.75,-662.28 3281.84,-644.25 3548.89,-612 3555.75,-611.17 3562.89,-610 3569.94,-608.65"/>
<polygon fill="black" stroke="black" points="3571.04,-612 3580.14,-606.57 3569.64,-605.14 3571.04,-612"/>
</g>
<!-- Page.Home -->
<g id="node26" class="node">
<title>Page.Home</title>
<ellipse fill="none" stroke="black" cx="847.89" cy="-594" rx="63.89" ry="18"/>
<text text-anchor="middle" x="847.89" y="-590.3" font-family="Times,serif" font-size="14.00">Page.Home</text>
</g>
<!-- Main&#45;&gt;Page.Home -->
<g id="edge57" class="edge">
<title>Main&#45;&gt;Page.Home</title>
<path fill="none" stroke="black" d="M921.28,-650.83C908.63,-641.22 891.66,-628.3 877.22,-617.31"/>
<polygon fill="black" stroke="black" points="879.13,-614.37 869.06,-611.1 874.9,-619.94 879.13,-614.37"/>
</g>
<!-- Page.Login -->
<g id="node27" class="node">
<title>Page.Login</title>
<ellipse fill="none" stroke="black" cx="1621.89" cy="-450" rx="61.99" ry="18"/>
<text text-anchor="middle" x="1621.89" y="-446.3" font-family="Times,serif" font-size="14.00">Page.Login</text>
</g>
<!-- Main&#45;&gt;Page.Login -->
<g id="edge58" class="edge">
<title>Main&#45;&gt;Page.Login</title>
<path fill="none" stroke="black" d="M968.76,-655.94C1074.01,-622.92 1437.92,-508.73 1571.89,-466.69"/>
<polygon fill="black" stroke="black" points="1573.01,-470.01 1581.5,-463.67 1570.91,-463.33 1573.01,-470.01"/>
</g>
<!-- Page.NotFound -->
<g id="node28" class="node">
<title>Page.NotFound</title>
<ellipse fill="none" stroke="black" cx="81.89" cy="-162" rx="81.79" ry="18"/>
<text text-anchor="middle" x="81.89" y="-158.3" font-family="Times,serif" font-size="14.00">Page.NotFound</text>
</g>
<!-- Main&#45;&gt;Page.NotFound -->
<g id="edge59" class="edge">
<title>Main&#45;&gt;Page.NotFound</title>
<path fill="none" stroke="black" d="M905.17,-664.77C759.66,-663.51 203.61,-655.84 139.89,-612 104.01,-587.31 98.89,-566.55 98.89,-523 98.89,-523 98.89,-523 98.89,-305 98.89,-264.93 92.14,-218.95 87.14,-190.43"/>
<polygon fill="black" stroke="black" points="90.55,-189.63 85.33,-180.41 83.67,-190.87 90.55,-189.63"/>
</g>
<!-- Page.Profile -->
<g id="node29" class="node">
<title>Page.Profile</title>
<ellipse fill="none" stroke="black" cx="1587.89" cy="-594" rx="66.09" ry="18"/>
<text text-anchor="middle" x="1587.89" y="-590.3" font-family="Times,serif" font-size="14.00">Page.Profile</text>
</g>
<!-- Main&#45;&gt;Page.Profile -->
<g id="edge60" class="edge">
<title>Main&#45;&gt;Page.Profile</title>
<path fill="none" stroke="black" d="M973.37,-661.38C1074.5,-650.46 1378.46,-617.62 1517.31,-602.62"/>
<polygon fill="black" stroke="black" points="1517.86,-606.09 1527.42,-601.53 1517.1,-599.13 1517.86,-606.09"/>
</g>
<!-- Page.Register -->
<g id="node30" class="node">
<title>Page.Register</title>
<ellipse fill="none" stroke="black" cx="1466.89" cy="-450" rx="75.29" ry="18"/>
<text text-anchor="middle" x="1466.89" y="-446.3" font-family="Times,serif" font-size="14.00">Page.Register</text>
</g>
<!-- Main&#45;&gt;Page.Register -->
<g id="edge61" class="edge">
<title>Main&#45;&gt;Page.Register</title>
<path fill="none" stroke="black" d="M949.07,-648.56C968.82,-614.96 1018.85,-538.63 1083.89,-504 1134.47,-477.07 1287.9,-462.49 1384.52,-455.76"/>
<polygon fill="black" stroke="black" points="1384.82,-459.25 1394.56,-455.08 1384.34,-452.27 1384.82,-459.25"/>
</g>
<!-- Page.Settings -->
<g id="node31" class="node">
<title>Page.Settings</title>
<ellipse fill="none" stroke="black" cx="750.89" cy="-450" rx="75.29" ry="18"/>
<text text-anchor="middle" x="750.89" y="-446.3" font-family="Times,serif" font-size="14.00">Page.Settings</text>
</g>
<!-- Main&#45;&gt;Page.Settings -->
<g id="edge62" class="edge">
<title>Main&#45;&gt;Page.Settings</title>
<path fill="none" stroke="black" d="M906.45,-660.94C855.39,-653.99 761.83,-637.97 741.89,-612 712.11,-573.19 727.18,-512.35 739.75,-477.63"/>
<polygon fill="black" stroke="black" points="743.07,-478.75 743.35,-468.16 736.52,-476.26 743.07,-478.75"/>
</g>
<!-- Page.Article&#45;&gt;Api -->
<g id="edge70" class="edge">
<title>Page.Article&#45;&gt;Api</title>
<path fill="none" stroke="black" d="M2330.43,-576.06C2303.59,-536.63 2237.82,-441.31 2222.89,-432 2147.37,-384.91 2107.48,-431.57 2025.89,-396 1902.91,-342.39 1783.11,-231.88 1735.46,-184.9"/>
<polygon fill="black" stroke="black" points="1737.74,-182.24 1728.18,-177.67 1732.81,-187.2 1737.74,-182.24"/>
</g>
<!-- Page.Article&#45;&gt;Api.Endpoint -->
<g id="edge71" class="edge">
<title>Page.Article&#45;&gt;Api.Endpoint</title>
<path fill="none" stroke="black" d="M2403.41,-586.66C2439.62,-583.11 2486.32,-578.84 2527.89,-576 2571.89,-572.99 3286.5,-567.61 3320.89,-540 3352.84,-514.35 3344.89,-491.97 3344.89,-451 3344.89,-451 3344.89,-451 3344.89,-305 3344.89,-228.32 3338.68,-196.61 3282.89,-144 3258.07,-120.59 3222.89,-107.52 3191.31,-100.22"/>
<polygon fill="black" stroke="black" points="3191.71,-96.73 3181.2,-98.05 3190.24,-103.57 3191.71,-96.73"/>
</g>
<!-- Page.Article&#45;&gt;Avatar -->
<g id="edge72" class="edge">
<title>Page.Article&#45;&gt;Avatar</title>
<path fill="none" stroke="black" d="M2275.07,-592.14C2099.89,-589.4 1613.09,-578.61 1209.89,-540 1099.02,-529.38 1072.43,-517.68 961.89,-504 884.08,-494.37 677.44,-509.46 610.89,-468 543.57,-426.06 533.89,-386.32 533.89,-307 533.89,-307 533.89,-307 533.89,-233 533.89,-171.13 601.96,-128.48 647,-107.03"/>
<polygon fill="black" stroke="black" points="648.61,-110.14 656.22,-102.77 645.68,-103.78 648.61,-110.14"/>
</g>
<!-- Page.Article&#45;&gt;Username -->
<g id="edge73" class="edge">
<title>Page.Article&#45;&gt;Username</title>
<path fill="none" stroke="black" d="M2408.57,-591.74C2627.26,-587.3 3310.72,-571 3345.89,-540 3453.94,-444.76 3394.79,-353.81 3352.89,-216 3325.45,-125.72 3287,-100 3196.89,-72 3096.47,-40.79 2369.84,-24.59 2141.43,-20.23"/>
<polygon fill="black" stroke="black" points="2141.32,-16.72 2131.25,-20.03 2141.18,-23.72 2141.32,-16.72"/>
</g>
<!-- Page.Article&#45;&gt;Article.Slug -->
<g id="edge74" class="edge">
<title>Page.Article&#45;&gt;Article.Slug</title>
<path fill="none" stroke="black" d="M2408.5,-591.71C2631.22,-587.14 3338.11,-570.28 3375.89,-540 3514.75,-428.73 3477.68,-316.72 3434.89,-144 3426.19,-108.88 3424.63,-95.23 3396.89,-72 3369.36,-48.94 3331.66,-35.87 3299.15,-28.48"/>
<polygon fill="black" stroke="black" points="3299.75,-25.04 3289.24,-26.37 3298.29,-31.88 3299.75,-25.04"/>
</g>
<!-- Page.Article&#45;&gt;CommentId -->
<g id="edge75" class="edge">
<title>Page.Article&#45;&gt;CommentId</title>
<path fill="none" stroke="black" d="M2408.59,-592.43C2627.85,-590.18 3317.63,-579.98 3408.89,-540 3502.45,-499.01 3572.89,-481.14 3572.89,-379 3572.89,-379 3572.89,-379 3572.89,-161 3572.89,-119.63 3557.66,-73.72 3546.48,-45.61"/>
<polygon fill="black" stroke="black" points="3549.61,-44.02 3542.58,-36.09 3543.14,-46.67 3549.61,-44.02"/>
</g>
<!-- Page.Article&#45;&gt;Article -->
<g id="edge76" class="edge">
<title>Page.Article&#45;&gt;Article</title>
<path fill="none" stroke="black" d="M2388.17,-580.88C2417.03,-572.1 2454.2,-558.52 2483.89,-540 2499.31,-530.38 2532.76,-497.4 2555.31,-474.41"/>
<polygon fill="black" stroke="black" points="2558.02,-476.65 2562.5,-467.04 2553.01,-471.76 2558.02,-476.65"/>
</g>
<!-- Page.Article&#45;&gt;Article.Body -->
<g id="edge77" class="edge">
<title>Page.Article&#45;&gt;Article.Body</title>
<path fill="none" stroke="black" d="M2406.55,-589.25C2504.36,-582.79 2684.72,-567.5 2742.89,-540 2800.92,-512.57 2839.84,-443.55 2857.69,-405.39"/>
<polygon fill="black" stroke="black" points="2861.03,-406.5 2861.97,-395.95 2854.66,-403.61 2861.03,-406.5"/>
</g>
<!-- Page.Article&#45;&gt;Author -->
<g id="edge78" class="edge">
<title>Page.Article&#45;&gt;Author</title>
<path fill="none" stroke="black" d="M2366.23,-577.16C2379.68,-567.55 2396.01,-554.4 2407.89,-540 2430.92,-512.09 2437.19,-503.12 2445.89,-468 2450.98,-447.46 2448.1,-423.57 2444.3,-405.72"/>
<polygon fill="black" stroke="black" points="2447.7,-404.91 2442,-395.97 2440.89,-406.51 2447.7,-404.91"/>
</g>
<!-- Page.Article&#45;&gt;Profile -->
<g id="edge79" class="edge">
<title>Page.Article&#45;&gt;Profile</title>
<path fill="none" stroke="black" d="M2339.58,-575.76C2336.57,-557.2 2330.18,-527.19 2317.89,-504 2298.12,-466.68 2292.3,-453.4 2255.89,-432 2187.44,-391.76 2152.56,-430.2 2080.89,-396 2043.01,-377.92 1952.86,-297.49 1909.29,-257.59"/>
<polygon fill="black" stroke="black" points="1911.46,-254.83 1901.72,-250.64 1906.72,-259.98 1911.46,-254.83"/>
</g>
<!-- Page.Article&#45;&gt;Viewer -->
<g id="edge80" class="edge">
<title>Page.Article&#45;&gt;Viewer</title>
<path fill="none" stroke="black" d="M2275.06,-592.8C2093.67,-591.69 1595.22,-584.53 1437.89,-540 1375.83,-522.44 1217.46,-452.24 1185.89,-396 1178.06,-382.05 1177.92,-373.87 1185.89,-360 1196.29,-341.91 1215.5,-329.42 1233.6,-321.13"/>
<polygon fill="black" stroke="black" points="1235.08,-324.3 1242.91,-317.17 1232.34,-317.86 1235.08,-324.3"/>
</g>
<!-- Page.Article&#45;&gt;Article.Comment -->
<g id="edge81" class="edge">
<title>Page.Article&#45;&gt;Article.Comment</title>
<path fill="none" stroke="black" d="M2405.73,-588.33C2509.13,-580.45 2719.56,-563.07 2896.89,-540 2906.1,-538.8 2915.74,-537.4 2925.28,-535.93"/>
<polygon fill="black" stroke="black" points="2925.82,-539.39 2935.16,-534.38 2924.74,-532.47 2925.82,-539.39"/>
</g>
<!-- Page.Article&#45;&gt;Page -->
<g id="edge82" class="edge">
<title>Page.Article&#45;&gt;Page</title>
<path fill="none" stroke="black" d="M2275.36,-591.57C2133.36,-587.83 1810.7,-575.49 1776.89,-540 1761.52,-523.86 1762.19,-497.69 1765.71,-477.9"/>
<polygon fill="black" stroke="black" points="1769.17,-478.44 1767.8,-467.94 1762.32,-477 1769.17,-478.44"/>
</g>
<!-- Page.Article&#45;&gt;Route -->
<g id="edge83" class="edge">
<title>Page.Article&#45;&gt;Route</title>
<path fill="none" stroke="black" d="M2408.96,-593.39C2585.26,-593.72 3051.43,-589.83 3097.89,-540 3108.8,-528.3 3103.31,-519.06 3097.89,-504 3083.84,-464.94 3015.54,-379.49 2978.89,-360 2894.02,-314.86 2601.96,-307.99 2485.45,-307.07"/>
<polygon fill="black" stroke="black" points="2485.41,-303.57 2475.39,-307.01 2485.37,-310.57 2485.41,-303.57"/>
</g>
<!-- Page.Article&#45;&gt;Session -->
<g id="edge84" class="edge">
<title>Page.Article&#45;&gt;Session</title>
<path fill="none" stroke="black" d="M2275.58,-591.12C2078.79,-584.56 1501.75,-557.94 1339.89,-468 1321.18,-457.6 1323.46,-446.7 1307.89,-432 1296.06,-420.83 1282.07,-409.5 1269.94,-400.2"/>
<polygon fill="black" stroke="black" points="1271.98,-397.36 1261.89,-394.12 1267.76,-402.94 1271.98,-397.36"/>
</g>
<!-- Page.Article&#45;&gt;Timestamp -->
<g id="edge85" class="edge">
<title>Page.Article&#45;&gt;Timestamp</title>
<path fill="none" stroke="black" d="M2320.1,-576.71C2286.02,-551.25 2220.07,-501.95 2181.65,-473.24"/>
<polygon fill="black" stroke="black" points="2183.54,-470.28 2173.43,-467.1 2179.35,-475.89 2183.54,-470.28"/>
</g>
<!-- Page.Article&#45;&gt;Loading -->
<g id="edge86" class="edge">
<title>Page.Article&#45;&gt;Loading</title>
<path fill="none" stroke="black" d="M2275.49,-591.44C2095.64,-586.92 1584.15,-572.01 1159.89,-540 1122.12,-537.15 510.7,-492.59 481.89,-468 464.25,-452.94 458.89,-426.4 457.56,-406.21"/>
<polygon fill="black" stroke="black" points="461.05,-405.91 457.19,-396.04 454.06,-406.17 461.05,-405.91"/>
</g>
<!-- Log -->
<g id="node32" class="node">
<title>Log</title>
<ellipse fill="none" stroke="black" cx="1007.89" cy="-378" rx="27.9" ry="18"/>
<text text-anchor="middle" x="1007.89" y="-374.3" font-family="Times,serif" font-size="14.00">Log</text>
</g>
<!-- Page.Article&#45;&gt;Log -->
<g id="edge87" class="edge">
<title>Page.Article&#45;&gt;Log</title>
<path fill="none" stroke="black" d="M2275.26,-591.79C2042.63,-587.29 1278.31,-570.27 1235.89,-540 1193.84,-509.99 1231.2,-466.66 1192.89,-432 1152.1,-395.09 1087.24,-383.73 1046.16,-380.33"/>
<polygon fill="black" stroke="black" points="1046.22,-376.83 1036,-379.61 1045.73,-383.81 1046.22,-376.83"/>
</g>
<!-- Page.Article.Editor&#45;&gt;Api -->
<g id="edge88" class="edge">
<title>Page.Article.Editor&#45;&gt;Api</title>
<path fill="none" stroke="black" d="M2642.06,-503.83C2648.62,-485.57 2656.15,-456.08 2647.89,-432 2634.74,-393.65 2619.23,-389.94 2591.89,-360 2560.3,-325.4 2554.04,-313.74 2514.89,-288 2481.47,-266.02 2388.68,-225.79 2349.89,-216 2235.17,-187.04 1869.18,-169.51 1751.04,-164.5"/>
<polygon fill="black" stroke="black" points="1750.85,-160.99 1740.72,-164.06 1750.56,-167.98 1750.85,-160.99"/>
</g>
<!-- Page.Article.Editor&#45;&gt;Api.Endpoint -->
<g id="edge89" class="edge">
<title>Page.Article.Editor&#45;&gt;Api.Endpoint</title>
<path fill="none" stroke="black" d="M2732.72,-519.45C2873.61,-511.45 3116.89,-473.52 3116.89,-307 3116.89,-307 3116.89,-307 3116.89,-233 3116.89,-193 3116.89,-146.65 3116.89,-118.08"/>
<polygon fill="black" stroke="black" points="3120.39,-118.05 3116.89,-108.05 3113.39,-118.05 3120.39,-118.05"/>
</g>
<!-- Page.Article.Editor&#45;&gt;Article.Slug -->
<g id="edge90" class="edge">
<title>Page.Article.Editor&#45;&gt;Article.Slug</title>
<path fill="none" stroke="black" d="M2726.88,-515.22C2827.37,-507.79 2981.07,-492.79 3033.89,-468 3113.31,-430.73 3131.92,-403.55 3168.89,-324 3213.32,-228.42 3226.04,-101.42 3229.58,-46.37"/>
<polygon fill="black" stroke="black" points="3233.09,-46.24 3230.19,-36.05 3226.1,-45.83 3233.09,-46.24"/>
</g>
<!-- Page.Article.Editor&#45;&gt;Article -->
<g id="edge91" class="edge">
<title>Page.Article.Editor&#45;&gt;Article</title>
<path fill="none" stroke="black" d="M2621.09,-504.05C2614.06,-495.42 2605.38,-484.76 2597.65,-475.27"/>
<polygon fill="black" stroke="black" points="2600.2,-472.85 2591.17,-467.31 2594.77,-477.27 2600.2,-472.85"/>
</g>
<!-- Page.Article.Editor&#45;&gt;Article.Body -->
<g id="edge92" class="edge">
<title>Page.Article.Editor&#45;&gt;Article.Body</title>
<path fill="none" stroke="black" d="M2694.27,-507.6C2723.71,-499.2 2758.86,-486.4 2786.89,-468 2812.9,-450.93 2836.26,-423.82 2851.33,-404.01"/>
<polygon fill="black" stroke="black" points="2854.31,-405.86 2857.46,-395.75 2848.69,-401.69 2854.31,-405.86"/>
</g>
<!-- Page.Article.Editor&#45;&gt;Profile -->
<g id="edge93" class="edge">
<title>Page.Article.Editor&#45;&gt;Profile</title>
<path fill="none" stroke="black" d="M2589.52,-505.94C2530.79,-486.83 2425.06,-453.76 2332.89,-432 2244.57,-411.14 2213.54,-435.63 2131.89,-396 2088.56,-374.97 2086.38,-356.57 2050.89,-324 2033.75,-308.27 2032.41,-300.66 2012.89,-288 1997.76,-278.18 1956.42,-261.68 1924.78,-249.69"/>
<polygon fill="black" stroke="black" points="1925.9,-246.37 1915.31,-246.13 1923.44,-252.92 1925.9,-246.37"/>
</g>
<!-- Page.Article.Editor&#45;&gt;Page -->
<g id="edge94" class="edge">
<title>Page.Article.Editor&#45;&gt;Page</title>
<path fill="none" stroke="black" d="M2546.69,-513.84C2364.13,-499.01 1950.62,-465.43 1816.08,-454.51"/>
<polygon fill="black" stroke="black" points="1816.02,-450.99 1805.77,-453.67 1815.45,-457.97 1816.02,-450.99"/>
</g>
<!-- Page.Article.Editor&#45;&gt;Route -->
<g id="edge95" class="edge">
<title>Page.Article.Editor&#45;&gt;Route</title>
<path fill="none" stroke="black" d="M2638.01,-503.96C2640.56,-485.01 2641.9,-454.17 2628.89,-432 2595.05,-374.31 2522.82,-338.47 2477.24,-320.67"/>
<polygon fill="black" stroke="black" points="2478.26,-317.31 2467.66,-317.05 2475.78,-323.86 2478.26,-317.31"/>
</g>
<!-- Page.Article.Editor&#45;&gt;Session -->
<g id="edge96" class="edge">
<title>Page.Article.Editor&#45;&gt;Session</title>
<path fill="none" stroke="black" d="M2582.04,-506.76C2504.09,-486.4 2353.44,-449.51 2222.89,-432 2041.75,-407.7 1476.77,-386.98 1296.66,-380.84"/>
<polygon fill="black" stroke="black" points="1296.72,-377.34 1286.61,-380.5 1296.48,-384.34 1296.72,-377.34"/>
</g>
<!-- Page.Article.Editor&#45;&gt;Loading -->
<g id="edge97" class="edge">
<title>Page.Article.Editor&#45;&gt;Loading</title>
<path fill="none" stroke="black" d="M2537.56,-518.62C2143.96,-508.98 689.99,-473.04 666.89,-468 602.19,-453.89 532.45,-420 492.11,-398.35"/>
<polygon fill="black" stroke="black" points="493.7,-395.22 483.24,-393.52 490.36,-401.37 493.7,-395.22"/>
</g>
<!-- Page.Home&#45;&gt;Api -->
<g id="edge98" class="edge">
<title>Page.Home&#45;&gt;Api</title>
<path fill="none" stroke="black" d="M810.15,-579.47C766.54,-561.55 696.93,-525.34 666.89,-468 659.47,-453.83 661.86,-447.19 666.89,-432 685.74,-375.18 775.21,-244.44 827.89,-216 903.36,-175.26 1517.66,-165.29 1676.51,-163.39"/>
<polygon fill="black" stroke="black" points="1676.77,-166.89 1686.73,-163.27 1676.69,-159.89 1676.77,-166.89"/>
</g>
<!-- Page.Home&#45;&gt;Api.Endpoint -->
<g id="edge99" class="edge">
<title>Page.Home&#45;&gt;Api.Endpoint</title>
<path fill="none" stroke="black" d="M911.16,-591.32C1029.36,-588.2 1291.8,-581.34 1512.89,-576 1556.92,-574.94 3060.83,-563.78 3097.89,-540 3221.96,-460.39 3181.05,-362.91 3168.89,-216 3166.22,-183.67 3169.7,-173.81 3156.89,-144 3152.59,-133.99 3146.02,-124.15 3139.43,-115.72"/>
<polygon fill="black" stroke="black" points="3141.98,-113.3 3132.93,-107.8 3136.57,-117.75 3141.98,-113.3"/>
</g>
<!-- Page.Home&#45;&gt;Username -->
<g id="edge100" class="edge">
<title>Page.Home&#45;&gt;Username</title>
<path fill="none" stroke="black" d="M787.66,-588.03C679.72,-578.72 461.75,-557.98 431.89,-540 323.41,-474.66 267.89,-433.64 267.89,-307 267.89,-307 267.89,-307 267.89,-161 267.89,-7.81 449.39,-94.68 600.89,-72 876.84,-30.7 1751.97,-21.3 2004.23,-19.42"/>
<polygon fill="black" stroke="black" points="2004.38,-22.92 2014.35,-19.35 2004.33,-15.92 2004.38,-22.92"/>
</g>
<!-- Page.Home&#45;&gt;Article -->
<g id="edge101" class="edge">
<title>Page.Home&#45;&gt;Article</title>
<path fill="none" stroke="black" d="M911.04,-591.26C1161.17,-584.25 2075.15,-557.66 2203.89,-540 2326,-523.25 2466.56,-484.35 2535.4,-463.98"/>
<polygon fill="black" stroke="black" points="2536.45,-467.32 2545.03,-461.11 2534.45,-460.61 2536.45,-467.32"/>
</g>
<!-- Page.Home&#45;&gt;Article.Tag -->
<g id="edge102" class="edge">
<title>Page.Home&#45;&gt;Article.Tag</title>
<path fill="none" stroke="black" d="M910.97,-591.49C1111.12,-586.46 1730.4,-568.9 1928.89,-540 2062.02,-520.62 2139.85,-573.84 2222.89,-468 2237.04,-449.97 2228.55,-423.97 2218.46,-404.72"/>
<polygon fill="black" stroke="black" points="2221.43,-402.87 2213.47,-395.88 2215.34,-406.31 2221.43,-402.87"/>
</g>
<!-- Page.Home&#45;&gt;Article.Feed -->
<g id="edge103" class="edge">
<title>Page.Home&#45;&gt;Article.Feed</title>
<path fill="none" stroke="black" d="M908.87,-588.75C1084.05,-576.55 1588.4,-541.42 1778.87,-528.16"/>
<polygon fill="black" stroke="black" points="1779.33,-531.63 1789.06,-527.45 1778.84,-524.65 1779.33,-531.63"/>
</g>
<!-- Page.Home&#45;&gt;Page -->
<g id="edge104" class="edge">
<title>Page.Home&#45;&gt;Page</title>
<path fill="none" stroke="black" d="M904.71,-585.84C1041.08,-568.39 1397.52,-521.18 1692.89,-468 1706.01,-465.64 1720.27,-462.72 1733.07,-459.97"/>
<polygon fill="black" stroke="black" points="1733.94,-463.37 1742.97,-457.82 1732.45,-456.53 1733.94,-463.37"/>
</g>
<!-- Page.Home&#45;&gt;PaginatedList -->
<g id="edge105" class="edge">
<title>Page.Home&#45;&gt;PaginatedList</title>
<path fill="none" stroke="black" d="M852.12,-575.81C858.01,-555.55 870.67,-522.31 893.89,-504 905.81,-494.61 984.79,-476.64 1043.59,-464.25"/>
<polygon fill="black" stroke="black" points="1044.5,-467.64 1053.57,-462.16 1043.07,-460.78 1044.5,-467.64"/>
</g>
<!-- Page.Home&#45;&gt;Session -->
<g id="edge106" class="edge">
<title>Page.Home&#45;&gt;Session</title>
<path fill="none" stroke="black" d="M846.49,-575.69C845.85,-556.23 847.73,-524.65 863.89,-504 904.75,-451.79 1096.94,-407.49 1190.06,-388.67"/>
<polygon fill="black" stroke="black" points="1190.98,-392.06 1200.1,-386.66 1189.61,-385.19 1190.98,-392.06"/>
</g>
<!-- Page.Home&#45;&gt;Loading -->
<g id="edge107" class="edge">
<title>Page.Home&#45;&gt;Loading</title>
<path fill="none" stroke="black" d="M785.23,-590.34C717.76,-585.78 608.24,-573.43 519.89,-540 463.85,-518.79 434.82,-520.48 405.89,-468 398.17,-453.99 399.84,-446.81 405.89,-432 410.73,-420.16 419.63,-409.54 428.72,-400.97"/>
<polygon fill="black" stroke="black" points="431.12,-403.51 436.31,-394.27 426.49,-398.26 431.12,-403.51"/>
</g>
<!-- Page.Home&#45;&gt;Log -->
<g id="edge108" class="edge">
<title>Page.Home&#45;&gt;Log</title>
<path fill="none" stroke="black" d="M817.74,-577.9C803.47,-569 787.84,-556.27 779.89,-540 772.87,-525.62 771.74,-517.77 779.89,-504 785.54,-494.46 916.84,-425.93 977.57,-394.58"/>
<polygon fill="black" stroke="black" points="979.4,-397.57 986.69,-389.88 976.19,-391.35 979.4,-397.57"/>
</g>
<!-- Page.Login&#45;&gt;Api -->
<g id="edge109" class="edge">
<title>Page.Login&#45;&gt;Api</title>
<path fill="none" stroke="black" d="M1598.23,-433.33C1586.43,-424.04 1573.33,-411.13 1566.89,-396 1548.11,-351.83 1555.35,-334.59 1566.89,-288 1575.59,-252.88 1578.89,-241.16 1604.89,-216 1626.06,-195.52 1656.68,-181.59 1680.08,-173.17"/>
<polygon fill="black" stroke="black" points="1681.29,-176.45 1689.61,-169.89 1679.02,-169.83 1681.29,-176.45"/>
</g>
<!-- Page.Login&#45;&gt;Viewer -->
<g id="edge110" class="edge">
<title>Page.Login&#45;&gt;Viewer</title>
<path fill="none" stroke="black" d="M1587.1,-435.03C1560.68,-424.4 1523.46,-409.36 1490.89,-396 1429.59,-370.85 1358.61,-341.23 1315.76,-323.3"/>
<polygon fill="black" stroke="black" points="1316.85,-319.96 1306.28,-319.33 1314.15,-326.42 1316.85,-319.96"/>
</g>
<!-- Page.Login&#45;&gt;Route -->
<g id="edge111" class="edge">
<title>Page.Login&#45;&gt;Route</title>
<path fill="none" stroke="black" d="M1661.44,-436.15C1722.76,-416.72 1844.78,-380.01 1950.89,-360 2109.78,-330.03 2301.33,-315.32 2388.94,-309.75"/>
<polygon fill="black" stroke="black" points="2389.34,-313.23 2399.1,-309.11 2388.9,-306.24 2389.34,-313.23"/>
</g>
<!-- Page.Login&#45;&gt;Session -->
<g id="edge112" class="edge">
<title>Page.Login&#45;&gt;Session</title>
<path fill="none" stroke="black" d="M1576.54,-437.66C1568.04,-435.68 1559.21,-433.7 1550.89,-432 1457.26,-412.86 1433.09,-412.17 1338.89,-396 1323.82,-393.41 1307.45,-390.58 1292.48,-387.98"/>
<polygon fill="black" stroke="black" points="1292.82,-384.49 1282.37,-386.23 1291.63,-391.39 1292.82,-384.49"/>
</g>
<!-- Page.NotFound&#45;&gt;Asset -->
<g id="edge113" class="edge">
<title>Page.NotFound&#45;&gt;Asset</title>
<path fill="none" stroke="black" d="M94.94,-144.15C114.42,-119.01 151.17,-71.57 173.41,-42.87"/>
<polygon fill="black" stroke="black" points="176.18,-45 179.53,-34.95 170.64,-40.72 176.18,-45"/>
</g>
<!-- Page.Profile&#45;&gt;Api -->
<g id="edge114" class="edge">
<title>Page.Profile&#45;&gt;Api</title>
<path fill="none" stroke="black" d="M1591.37,-575.7C1596.06,-556.24 1606.07,-524.66 1624.89,-504 1647.92,-478.72 1675.09,-497.2 1692.89,-468 1694.19,-465.87 1694.86,-290.5 1694.89,-288 1695.29,-256 1690.46,-247.54 1695.89,-216 1697.42,-207.15 1700.19,-197.78 1703.11,-189.42"/>
<polygon fill="black" stroke="black" points="1706.47,-190.42 1706.66,-179.83 1699.9,-187.99 1706.47,-190.42"/>
</g>
<!-- Page.Profile&#45;&gt;Api.Endpoint -->
<g id="edge115" class="edge">
<title>Page.Profile&#45;&gt;Api.Endpoint</title>
<path fill="none" stroke="black" d="M1653.47,-591.21C1964.33,-582.7 3274.75,-546.44 3282.89,-540 3315.02,-514.58 3306.89,-491.97 3306.89,-451 3306.89,-451 3306.89,-451 3306.89,-377 3306.89,-269.84 3315.48,-224.62 3244.89,-144 3228.4,-125.16 3204.14,-112.88 3181.17,-104.93"/>
<polygon fill="black" stroke="black" points="3182.02,-101.53 3171.43,-101.79 3179.87,-108.19 3182.02,-101.53"/>
</g>
<!-- Page.Profile&#45;&gt;Avatar -->
<g id="edge116" class="edge">
<title>Page.Profile&#45;&gt;Avatar</title>
<path fill="none" stroke="black" d="M1521.96,-591.9C1305.18,-587.98 622.97,-573.12 529.89,-540 437.16,-507.01 376.37,-455.32 400.89,-360 428.2,-253.85 435.23,-213.61 519.89,-144 552.97,-116.81 600.21,-103.48 635.84,-97"/>
<polygon fill="black" stroke="black" points="636.75,-100.4 646.03,-95.28 635.59,-93.5 636.75,-100.4"/>
</g>
<!-- Page.Profile&#45;&gt;Username -->
<g id="edge117" class="edge">
<title>Page.Profile&#45;&gt;Username</title>
<path fill="none" stroke="black" d="M1653.99,-591.91C1748.23,-588.99 1925.96,-578.35 2071.89,-540 2150.46,-519.35 2182.07,-525.06 2239.89,-468 2315.63,-393.27 2294.89,-341.4 2294.89,-235 2294.89,-235 2294.89,-235 2294.89,-161 2294.89,-83.54 2197.79,-46.43 2132.02,-30.17"/>
<polygon fill="black" stroke="black" points="2132.7,-26.74 2122.16,-27.83 2131.08,-33.55 2132.7,-26.74"/>
</g>
<!-- Page.Profile&#45;&gt;Article -->
<g id="edge118" class="edge">
<title>Page.Profile&#45;&gt;Article</title>
<path fill="none" stroke="black" d="M1653.94,-592.26C1822.74,-589.79 2266.58,-579.63 2407.89,-540 2415.11,-537.98 2496.22,-494.8 2543.75,-469.34"/>
<polygon fill="black" stroke="black" points="2545.61,-472.31 2552.77,-464.5 2542.31,-466.14 2545.61,-472.31"/>
</g>
<!-- Page.Profile&#45;&gt;Author -->
<g id="edge119" class="edge">
<title>Page.Profile&#45;&gt;Author</title>
<path fill="none" stroke="black" d="M1653.67,-591.58C1803.05,-587.79 2163.94,-575.16 2279.89,-540 2342.36,-521.06 2366.51,-518.48 2407.89,-468 2422.41,-450.29 2429.73,-425.11 2433.38,-406.05"/>
<polygon fill="black" stroke="black" points="2436.83,-406.63 2435.05,-396.18 2429.93,-405.46 2436.83,-406.63"/>
</g>
<!-- Page.Profile&#45;&gt;Profile -->
<g id="edge120" class="edge">
<title>Page.Profile&#45;&gt;Profile</title>
<path fill="none" stroke="black" d="M1654.29,-592.51C1743.32,-590.27 1894.25,-580.44 1928.89,-540 1998.62,-458.6 1932.26,-317.8 1900.11,-260.43"/>
<polygon fill="black" stroke="black" points="1903.09,-258.6 1895.09,-251.65 1897.02,-262.07 1903.09,-258.6"/>
</g>
<!-- Page.Profile&#45;&gt;Viewer -->
<g id="edge121" class="edge">
<title>Page.Profile&#45;&gt;Viewer</title>
<path fill="none" stroke="black" d="M1521.4,-593.43C1433.41,-592.12 1274.53,-583.21 1146.89,-540 1087.26,-519.81 1056.11,-522.68 1024.89,-468 1016.96,-454.11 1016.82,-445.81 1024.89,-432 1067.31,-359.47 1166.53,-327.97 1227.05,-315.11"/>
<polygon fill="black" stroke="black" points="1228.04,-318.48 1237.14,-313.06 1226.65,-311.62 1228.04,-318.48"/>
</g>
<!-- Page.Profile&#45;&gt;Article.Feed -->
<g id="edge122" class="edge">
<title>Page.Profile&#45;&gt;Article.Feed</title>
<path fill="none" stroke="black" d="M1633.75,-580.89C1679.07,-568.92 1748.47,-550.58 1796.99,-537.77"/>
<polygon fill="black" stroke="black" points="1797.93,-541.14 1806.71,-535.2 1796.15,-534.37 1797.93,-541.14"/>
</g>
<!-- Page.Profile&#45;&gt;Page -->
<g id="edge123" class="edge">
<title>Page.Profile&#45;&gt;Page</title>
<path fill="none" stroke="black" d="M1599.93,-576.2C1614.38,-556.91 1640.17,-525.21 1667.89,-504 1688.99,-487.86 1715.76,-474.44 1736.98,-465.14"/>
<polygon fill="black" stroke="black" points="1738.48,-468.31 1746.31,-461.16 1735.74,-461.87 1738.48,-468.31"/>
</g>
<!-- Page.Profile&#45;&gt;PaginatedList -->
<g id="edge124" class="edge">
<title>Page.Profile&#45;&gt;PaginatedList</title>
<path fill="none" stroke="black" d="M1523.72,-589.25C1428.17,-582.84 1253.76,-567.69 1197.89,-540 1168.3,-525.33 1142.62,-496.95 1126.55,-476.17"/>
<polygon fill="black" stroke="black" points="1129.28,-473.96 1120.47,-468.07 1123.68,-478.17 1129.28,-473.96"/>
</g>
<!-- Page.Profile&#45;&gt;Route -->
<g id="edge125" class="edge">
<title>Page.Profile&#45;&gt;Route</title>
<path fill="none" stroke="black" d="M1653.67,-591.01C1890.9,-583.69 2691.2,-557.79 2742.89,-540 2847.49,-504.01 2895.12,-494.27 2945.89,-396 2953.24,-381.79 2956.6,-371.89 2945.89,-360 2915.37,-326.13 2606.55,-312.5 2485.34,-308.43"/>
<polygon fill="black" stroke="black" points="2485.35,-304.93 2475.24,-308.1 2485.12,-311.92 2485.35,-304.93"/>
</g>
<!-- Page.Profile&#45;&gt;Session -->
<g id="edge126" class="edge">
<title>Page.Profile&#45;&gt;Session</title>
<path fill="none" stroke="black" d="M1544.3,-580.36C1486.84,-562.19 1384.54,-524.54 1311.89,-468 1289.14,-450.29 1269.26,-423.86 1256.37,-404.4"/>
<polygon fill="black" stroke="black" points="1259.15,-402.25 1250.79,-395.74 1253.26,-406.04 1259.15,-402.25"/>
</g>
<!-- Page.Profile&#45;&gt;Loading -->
<g id="edge127" class="edge">
<title>Page.Profile&#45;&gt;Loading</title>
<path fill="none" stroke="black" d="M1522.49,-590.92C1290.23,-582.84 515.15,-549.92 443.89,-468 429.05,-450.94 435.44,-424.76 443.81,-405.21"/>
<polygon fill="black" stroke="black" points="447.08,-406.48 448.13,-395.94 440.73,-403.53 447.08,-406.48"/>
</g>
<!-- Page.Profile&#45;&gt;Log -->
<g id="edge128" class="edge">
<title>Page.Profile&#45;&gt;Log</title>
<path fill="none" stroke="black" d="M1521.5,-593.59C1388.43,-593.71 1094.41,-588.31 1007.89,-540 961.04,-513.84 933.12,-481.48 953.89,-432 959.56,-418.49 970.55,-406.69 981.14,-397.67"/>
<polygon fill="black" stroke="black" points="983.43,-400.32 989.06,-391.34 979.07,-394.85 983.43,-400.32"/>
</g>
<!-- Page.Register&#45;&gt;Api -->
<g id="edge129" class="edge">
<title>Page.Register&#45;&gt;Api</title>
<path fill="none" stroke="black" d="M1470.04,-431.73C1478.68,-389.11 1506.66,-277.91 1572.89,-216 1601.99,-188.8 1646.36,-175.21 1677.54,-168.66"/>
<polygon fill="black" stroke="black" points="1678.43,-172.05 1687.57,-166.7 1677.08,-165.18 1678.43,-172.05"/>
</g>
<!-- Page.Register&#45;&gt;Viewer -->
<g id="edge130" class="edge">
<title>Page.Register&#45;&gt;Viewer</title>
<path fill="none" stroke="black" d="M1418.43,-436.17C1392.89,-427.71 1362.13,-414.69 1338.89,-396 1317.58,-378.86 1300.5,-352.52 1289.7,-332.94"/>
<polygon fill="black" stroke="black" points="1292.7,-331.13 1284.92,-323.94 1286.52,-334.41 1292.7,-331.13"/>
</g>
<!-- Page.Register&#45;&gt;Route -->
<g id="edge131" class="edge">
<title>Page.Register&#45;&gt;Route</title>
<path fill="none" stroke="black" d="M1509.32,-435.09C1572.24,-415.06 1694.32,-378.49 1800.89,-360 2018,-322.33 2281.62,-311.2 2388.46,-308.11"/>
<polygon fill="black" stroke="black" points="2388.7,-311.61 2398.6,-307.83 2388.51,-304.61 2388.7,-311.61"/>
</g>
<!-- Page.Register&#45;&gt;Session -->
<g id="edge132" class="edge">
<title>Page.Register&#45;&gt;Session</title>
<path fill="none" stroke="black" d="M1422.78,-435.34C1383.23,-423.09 1325.47,-405.2 1285.7,-392.88"/>
<polygon fill="black" stroke="black" points="1286.59,-389.49 1276,-389.87 1284.52,-396.18 1286.59,-389.49"/>
</g>
<!-- Page.Settings&#45;&gt;Api -->
<g id="edge133" class="edge">
<title>Page.Settings&#45;&gt;Api</title>
<path fill="none" stroke="black" d="M776.76,-433.06C789.76,-423.78 804.66,-410.96 813.89,-396 857.09,-326.01 793.93,-268.93 856.89,-216 920.33,-162.67 1520.29,-162 1676.74,-162.74"/>
<polygon fill="black" stroke="black" points="1676.79,-166.24 1686.81,-162.8 1676.82,-159.24 1676.79,-166.24"/>
</g>
<!-- Page.Settings&#45;&gt;Api.Endpoint -->
<g id="edge134" class="edge">
<title>Page.Settings&#45;&gt;Api.Endpoint</title>
<path fill="none" stroke="black" d="M821.82,-443.87C877.12,-440.05 955.85,-434.99 1024.89,-432 1187.35,-424.96 2328.81,-429.65 2487.89,-396 2732.91,-344.17 2766.41,-252.97 2991.89,-144 3017.54,-131.6 3046.83,-119.1 3070.61,-109.35"/>
<polygon fill="black" stroke="black" points="3072.15,-112.5 3080.1,-105.49 3069.51,-106.02 3072.15,-112.5"/>
</g>
<!-- Page.Settings&#45;&gt;Avatar -->
<g id="edge135" class="edge">
<title>Page.Settings&#45;&gt;Avatar</title>
<path fill="none" stroke="black" d="M737.42,-432.21C718.39,-406.74 685.89,-356.07 685.89,-307 685.89,-307 685.89,-307 685.89,-233 685.89,-193 685.89,-146.65 685.89,-118.08"/>
<polygon fill="black" stroke="black" points="689.39,-118.05 685.89,-108.05 682.39,-118.05 689.39,-118.05"/>
</g>
<!-- Page.Settings&#45;&gt;Username -->
<g id="edge136" class="edge">
<title>Page.Settings&#45;&gt;Username</title>
<path fill="none" stroke="black" d="M747.24,-431.91C739.21,-389.24 724.97,-277.02 781.89,-216 949.79,-36.01 1761.61,-19.62 2004.26,-18.8"/>
<polygon fill="black" stroke="black" points="2004.37,-22.3 2014.36,-18.77 2004.35,-15.3 2004.37,-22.3"/>
</g>
<!-- Page.Settings&#45;&gt;Profile -->
<g id="edge137" class="edge">
<title>Page.Settings&#45;&gt;Profile</title>
<path fill="none" stroke="black" d="M791.46,-434.79C816.96,-425.2 850.16,-411.5 877.89,-396 901.8,-382.64 903.01,-371.44 927.89,-360 1051.3,-303.26 1090.78,-309.5 1224.89,-288 1450.03,-251.9 1722.51,-239.93 1833.81,-236.36"/>
<polygon fill="black" stroke="black" points="1834.18,-239.85 1844.07,-236.04 1833.97,-232.85 1834.18,-239.85"/>
</g>
<!-- Page.Settings&#45;&gt;Viewer -->
<g id="edge138" class="edge">
<title>Page.Settings&#45;&gt;Viewer</title>
<path fill="none" stroke="black" d="M807.79,-438.15C843.67,-429.84 890.19,-416.3 927.89,-396 949.84,-384.18 948.28,-370.49 970.89,-360 1053.71,-321.59 1160.84,-310.8 1223.89,-307.9"/>
<polygon fill="black" stroke="black" points="1224.15,-311.4 1234,-307.49 1223.87,-304.4 1224.15,-311.4"/>
</g>
<!-- Page.Settings&#45;&gt;Route -->
<g id="edge139" class="edge">
<title>Page.Settings&#45;&gt;Route</title>
<path fill="none" stroke="black" d="M819.74,-442.47C923.14,-432.62 1124.7,-413.28 1295.89,-396 1448.84,-380.56 1486.73,-373.1 1639.89,-360 1923.17,-335.77 2263.91,-316.35 2388.37,-309.58"/>
<polygon fill="black" stroke="black" points="2388.9,-313.06 2398.7,-309.03 2388.52,-306.07 2388.9,-313.06"/>
</g>
<!-- Page.Settings&#45;&gt;Session -->
<g id="edge140" class="edge">
<title>Page.Settings&#45;&gt;Session</title>
<path fill="none" stroke="black" d="M813.95,-439.99C911.51,-426.05 1097.26,-399.52 1188.15,-386.53"/>
<polygon fill="black" stroke="black" points="1188.82,-389.97 1198.23,-385.1 1187.83,-383.04 1188.82,-389.97"/>
</g>
<!-- Page.Settings&#45;&gt;Loading -->
<g id="edge141" class="edge">
<title>Page.Settings&#45;&gt;Loading</title>
<path fill="none" stroke="black" d="M699.52,-436.73C645.4,-423.8 560.77,-403.58 507.37,-390.82"/>
<polygon fill="black" stroke="black" points="507.99,-387.37 497.46,-388.45 506.37,-394.18 507.99,-387.37"/>
</g>
<!-- Page.Settings&#45;&gt;Log -->
<g id="edge142" class="edge">
<title>Page.Settings&#45;&gt;Log</title>
<path fill="none" stroke="black" d="M806.29,-437.63C850.07,-428.1 912.49,-413.29 965.89,-396 969.21,-394.93 972.64,-393.71 976.04,-392.44"/>
<polygon fill="black" stroke="black" points="977.4,-395.67 985.44,-388.78 974.85,-389.15 977.4,-395.67"/>
</g>
<!-- Page.Settings&#45;&gt;Email -->
<g id="edge143" class="edge">
<title>Page.Settings&#45;&gt;Email</title>
<path fill="none" stroke="black" d="M793.92,-435.09C814.01,-426.64 836.78,-413.95 851.89,-396 884.68,-357.08 896.9,-297.1 901.38,-262.39"/>
<polygon fill="black" stroke="black" points="904.9,-262.41 902.58,-252.07 897.95,-261.6 904.9,-262.41"/>
</g>
</g>
</svg>
